<svg width="725" height="621" viewBox="0 0 725 621" xmlns="http://www.w3.org/2000/svg" xmlns:xlink="http://www.w3.org/1999/xlink"><svg viewBox="0 0 10 5.89095" width="10" height="5.891"><defs><style>.aacls-1{fill:#999}</style></defs><title>Asset 9</title><path class="aacls-1" d="M4.11 5L.183 1.075a.63.63 0 0 1 .89-.89L5 4.108 8.925.183a.63.63 0 0 1 .89.89L5.892 5 5 5.89z" id="aaLayer_24"/></svg><svg viewBox="0 0 10 5.89095" width="10" height="5.891" x="10" y="6"><defs><style>.abcls-1{fill:#fff}</style></defs><title>Asset 9</title><path class="abcls-1" d="M4.11 5L.183 1.075a.63.63 0 0 1 .89-.89L5 4.108 8.925.183a.63.63 0 0 1 .89.89L5.892 5 5 5.89z" id="abLayer_24"/></svg><svg viewBox="0 0 39.38242 28" width="39.382" height="28" x="20" y="12"><defs><style>.accls-1{fill:#da251d}</style></defs><title>Artboard 121</title><g id="acLayer_6"><path class="accls-1" d="M12.856 0H26.53v3.335H12.856zM37.718 8.524h-2.854L33.14 3.112A3.01 3.01 0 0 0 30.297.834H28.4V2.5h1.897a1.357 1.357 0 0 1 1.217.974l1.64 5.05H6.23l1.646-5.05A1.354 1.354 0 0 1 9.093 2.5h1.893V.834H9.093a3.005 3.005 0 0 0-2.845 2.278L4.52 8.524H1.67a1.67 1.67 0 1 0 0 3.34h.478a1.184 1.184 0 0 0 .026.14L5.137 25.71A2.99 2.99 0 0 0 7.972 28H31.24a3.027 3.027 0 0 0 2.854-2.273L37.21 12.01l.03-.146h.48a1.67 1.67 0 0 0 0-3.34zm-24.65 15.64a1.252 1.252 0 1 1-2.504 0v-11.68a1.252 1.252 0 0 1 2.504 0zm7.88 0a1.252 1.252 0 1 1-2.505 0v-11.68a1.252 1.252 0 0 1 2.504 0zm7.873 0a1.25 1.25 0 1 1-2.498 0v-11.68a1.25 1.25 0 0 1 2.5 0z"/></g></svg><svg viewBox="0 0 27.54524 25" width="27.545" height="25" x="60" y="40"><defs><style>.adcls-1{fill:#fff}</style></defs><title>Icons - All.outline.4-Finalq</title><path class="adcls-1" d="M1.02 2.038h2.92L8.1 17.086a1.02 1.02 0 0 0 .986.747h12.79a1.02 1.02 0 0 0 .933-.612l4.653-10.7a1.03 1.03 0 0 0-.085-.966 1.012 1.012 0 0 0-.85-.46h-14.13a1.02 1.02 0 0 0 0 2.04h12.568l-3.77 8.66H9.85L5.69.748A1.02 1.02 0 0 0 4.705 0H1.02a1.02 1.02 0 1 0 0 2.038zM8.118 25a2.31 2.31 0 1 0-2.31-2.31A2.312 2.312 0 0 0 8.118 25zm14.436 0h.17a2.39 2.39 0 1 0-.17 0z" id="adLayer_3"/></svg><svg viewBox="0 0 25.07045 25" width="25.07" height="25" x="88" y="65"><defs><style>.aecls-1{fill:#a5cd39}.aecls-1,.aecls-2,.aecls-3{fill-rule:evenodd}.aecls-2{fill:#231f20}.aecls-3{fill:#ec1c24}</style></defs><title>Icons - All.outline.4-Finalq</title><g id="ae_Group_"><path id="ae_Path_" class="aecls-1" d="M3.747 0H21.29a3.774 3.774 0 0 1 3.78 3.71v17.544A3.78 3.78 0 0 1 21.29 25H3.747A3.75 3.75 0 0 1 0 21.254V3.71A3.743 3.743 0 0 1 3.747 0z"/><g id="ae_Group_2"><path id="ae_Path_2" class="aecls-2" d="M13.11 3.134h-1.996v5.39a3.626 3.626 0 0 1 1.996.61z"/><path id="ae_Compound_Path_" class="aecls-3" d="M11.64 18.26a2.173 2.173 0 0 1-2.032 1.12 2.542 2.542 0 0 1-1.61-.525 3.375 3.375 0 0 1-1.016-1.47 5.66 5.66 0 0 1-.35-1.89 5.866 5.866 0 0 1 .35-1.927 3.08 3.08 0 0 1 1.016-1.436 2.38 2.38 0 0 1 1.61-.56 2.348 2.348 0 0 1 1.54.525 3.494 3.494 0 0 1 .91 1.436 6.796 6.796 0 0 1 .28 1.96 5.143 5.143 0 0 1-.7 2.767zm3.536-5.883a5.505 5.505 0 0 0-1.75-2.38 4.38 4.38 0 0 0-2.767-.91 5.03 5.03 0 0 0-2.172.454 3.838 3.838 0 0 0-1.61 1.367h-.036V3.134h-3.29V21.83s3.01.35 3.115-1.575v-.316l.035.14a4.237 4.237 0 0 0 .35.56 3.677 3.677 0 0 0 1.226.84 5.847 5.847 0 0 0 2.38.385 4.356 4.356 0 0 0 2.767-.875 5.72 5.72 0 0 0 1.75-2.38 8.788 8.788 0 0 0 .596-3.117 8.644 8.644 0 0 0-.594-3.117z"/><path id="ae_Path_3" class="aecls-2" d="M20.924 12.377a4.93 4.93 0 0 0-6.688-2.836q-.178.086-.346.184a6.655 6.655 0 0 1 1.062 1.218 3.183 3.183 0 0 1 1.066-.17c2.537 0 3.29 2.678 3.29 4.725 0 2.07-.804 4.684-3.29 4.684a3.29 3.29 0 0 1-1.15-.193 6.536 6.536 0 0 1-1.22 1.3c.116.065.24.13.378.194a5.846 5.846 0 0 0 2.38.386 4.356 4.356 0 0 0 2.767-.875 5.72 5.72 0 0 0 1.75-2.38 8.788 8.788 0 0 0 .596-3.116 8.644 8.644 0 0 0-.596-3.117z"/></g></g></svg><svg viewBox="0 0 20.15687 15" width="20.157" height="15" x="114" y="90"><defs><style>.afcls-1{fill:#82c241}.afcls-2{fill:#fff}</style></defs><title>Artboard 131</title><g id="afLayer_4"><g id="af_Group_"><g id="af_Group_2"><path id="af_Path_" class="afcls-1" d="M1.412 5.424v9.572h2.106V7.05h13.05v7.946h1.818V4.69H1.412v.734z"/><path id="af_Path_2" class="afcls-2" d="M2.943.885h14.342l2.505 2.848.35 1.627L0 5.384l2.943-4.5z"/><path id="af_Path_3" class="afcls-1" d="M2.943.885L.023 3.877 0 5.384l2.273.072V3.83L4.54.884H2.944z"/><path id="af_Path_4" class="afcls-1" d="M6.102.885L4.5 3.765v1.7h2.2V3.788L7.634.87 6.102.884z"/><path id="af_Path_5" class="afcls-1" d="M9.277.853l-.27 2.992-.017 1.643h2.233v-1.61l-.35-3.04-1.596.015z"/><path id="af_Path_6" class="afcls-1" d="M12.45.885L13.505 3.7l-.032 1.74h2.186V3.813L13.983.885H12.45z"/><path id="af_Path_7" class="afcls-1" d="M15.754.885h1.53l2.873 2.896-.016 1.58h-2.137l.032-1.58-2.28-2.895z"/><path id="af_Rectangle_" class="afcls-1" d="M7.297 6.413h9.68V15h-9.68z"/><path id="af_Rectangle_2" class="afcls-2" d="M9.307 7.103H16.2v4.144H9.307z"/><path id="af_Rectangle_3" class="afcls-1" d="M12.418 6.51h.622v5.742h-.622z"/></g><path id="af_Path_8" class="afcls-1" d="M2.943.98L2.288 0h15.57l-.573.98S2.885.923 2.943.98z"/></g><path class="afcls-2" d="M3.518 7.05h3.78V15h-3.78z"/></g></svg><svg viewBox="0 0 20.15687 15" width="20.157" height="15" x="135" y="105"><defs><style>.agcls-1{fill:#fff}.agcls-2{fill:#84c225}</style></defs><title>Artboard 130</title><g id="agLayer_10"><path id="ag_Path_" class="agcls-1" d="M1.412 5.424v9.572h2.106V7.05h13.05v7.946h1.818V4.69H1.412v.734z"/><path id="ag_Path_2" class="agcls-2" d="M2.943.885h14.342l2.505 2.848.35 1.627L0 5.384l2.943-4.5z"/><path id="ag_Path_3" class="agcls-1" d="M2.943.885L.023 3.877 0 5.384l2.273.072V3.83L4.54.884H2.944z"/><path id="ag_Path_4" class="agcls-1" d="M6.102.885L4.5 3.765v1.7h2.2V3.788L7.634.87 6.102.884z"/><path id="ag_Path_5" class="agcls-1" d="M9.277.853l-.27 2.992-.017 1.643h2.233v-1.61l-.35-3.04-1.596.015z"/><path id="ag_Path_6" class="agcls-1" d="M12.45.885L13.505 3.7l-.032 1.74h2.186V3.813L13.983.885H12.45z"/><path id="ag_Path_7" class="agcls-1" d="M15.754.885h1.53l2.873 2.896-.016 1.58h-2.137l.032-1.58-2.28-2.895z"/><path id="ag_Rectangle_" class="agcls-1" d="M7.297 6.413h9.68V15h-9.68z"/><path id="ag_Rectangle_2" class="agcls-2" d="M9.307 7.103H16.2v4.144H9.307z"/><path id="ag_Rectangle_3" class="agcls-1" d="M12.418 6.51h.622v5.742h-.622z"/><path id="ag_Path_8" class="agcls-1" d="M2.943.98L2.288 0h15.57l-.573.98S2.885.923 2.943.98z"/><path class="agcls-2" d="M3.518 7.05h3.78V15h-3.78z"/></g></svg><svg viewBox="0 0 15 15" width="15" height="15" x="156" y="120"><defs><style>.ahcls-1{fill:#666}</style></defs><title>Asset 1</title><path class="ahcls-1" d="M11.72 15a6.54 6.54 0 0 1-2.24-.47 15.87 15.87 0 0 1-5.35-3.65A15.92 15.92 0 0 1 .47 5.52c-.67-1.77-.62-3.21.12-4l.2-.2A3.46 3.46 0 0 1 3.16 0a2.78 2.78 0 0 1 2 1.24c1.76 2.19 1 3.21 0 4.24l-.05.05c0 .19.31.86 1.9 2.45a12.72 12.72 0 0 0 1.9 1.61 2.18 2.18 0 0 0 .57.28l.06-.06c1-1 2-1.75 4.23 0a2.77 2.77 0 0 1 1.23 2 3.15 3.15 0 0 1-1.32 2.33l-.26.25a2.35 2.35 0 0 1-1.7.61zM3.09 1.11c-.52 0-1 .49-1.45 1l-.27.28c-.37.3-.37 1.28.14 2.74a14.8 14.8 0 0 0 3.41 5 14.74 14.74 0 0 0 5 3.4c1.25.48 2.39.52 2.77.13l.25-.24c.51-.48 1-1 1-1.5a1.78 1.78 0 0 0-.82-1.2c-1.58-1.27-2-.87-2.75-.09l-.15.15c-.4.4-1 .32-1.87-.23a13.65 13.65 0 0 1-2.11-1.79C5 7.49 3.39 5.7 4.25 4.83l.15-.15c.79-.78 1.19-1.17-.08-2.75a1.79 1.79 0 0 0-1.19-.82z" id="ahLayer_14"/></svg><svg viewBox="0 0 15.00009 15" width="15" height="15" x="171" y="135"><defs><style>.aicls-1{fill:#84c225}</style></defs><title>Artboard 122</title><path class="aicls-1" d="M9.21 7.5l5.436-5.434a1.21 1.21 0 0 0-1.71-1.712L7.5 5.79 2.065.354a1.21 1.21 0 0 0-1.71 1.712L5.788 7.5.354 12.934a1.21 1.21 0 0 0 1.71 1.712L7.5 9.21l5.435 5.435a1.21 1.21 0 0 0 1.71-1.712z" id="aiLayer_24"/></svg><svg viewBox="0 0 28.33293 15" width="28.333" height="15" x="187" y="150"><defs><style>.ajcls-1{fill:#1f1a17}.ajcls-2{fill:#888}</style></defs><title>Artboard 134</title><g id="ajLayer_3"><path id="aj_Path_" class="ajcls-1" d="M7.62 4.614L0 4.904 6.195 6.99l.207-1.316 1.22-1.06z"/><path id="aj_Path_2" class="ajcls-1" d="M5.63 7.64l-5.07.83 3.547 2.124a4.205 4.205 0 0 1 .38-1.684 4.21 4.21 0 0 1 1.145-1.27z"/><path class="ajcls-2" d="M25.265 7.05a4.012 4.012 0 0 0-1.822-.022L21.513.845a.26.26 0 0 0-.02-.037.412.412 0 0 0-.04-.068.26.26 0 0 0-.047-.052.27.27 0 0 0-.054-.043.37.37 0 0 0-.07-.034.3.3 0 0 0-.04-.017L18.893.01a.378.378 0 1 0-.18.734l2.144.53.518 1.73.403 1.278.946 2.974a4.03 4.03 0 1 0 2.542-.207zm1.02 4.407a2.048 2.048 0 1 1-1.496-2.48 2.048 2.048 0 0 1 1.495 2.48zM21.677 3.965a10.027 10.027 0 0 0-1.86-.24 6.315 6.315 0 0 0-.85.038c-1.127.135-1.968.785-3.46 2.015a2.632 2.632 0 0 1-3.29.206l-.012-.008a5.46 5.46 0 0 0-2.715-.883 3.37 3.37 0 0 0-.5.04.37.37 0 0 0-.294-.15h-.814l-.307.073a.37.37 0 0 0-.165.303v.555a4.973 4.973 0 0 0-.535.585.372.372 0 0 0-.13.284.366.366 0 0 0 .386.377.327.327 0 0 0 .062-.003c.002-.002.095-.015.253-.028a4.035 4.035 0 1 0 5.285 3.834c0-.03-.004-.057-.006-.085l.454.82c.444.765.882 2.03 1.68 2.03h2.297c.8 0 1.238-1.265 1.682-2.03l3.324-6.543zm-12.982 9.05a2.05 2.05 0 1 1 2.05-2.05 2.05 2.05 0 0 1-2.05 2.05z"/></g></svg><svg viewBox="0 0 28.33293 15" width="28.333" height="15" x="216" y="165"><defs><style>.akcls-1{fill:#1f1a17}.akcls-2{fill:#d82727}</style></defs><title>Artboard 132</title><g id="akLayer_3"><path id="ak_Path_" class="akcls-1" d="M7.62 4.614L0 4.904 6.195 6.99l.207-1.316 1.22-1.06z"/><path id="ak_Path_2" class="akcls-1" d="M5.63 7.64l-5.07.83 3.547 2.124a4.205 4.205 0 0 1 .38-1.684 4.21 4.21 0 0 1 1.145-1.27z"/><path class="akcls-2" d="M25.265 7.05a4.012 4.012 0 0 0-1.822-.022L21.513.845a.26.26 0 0 0-.02-.037.412.412 0 0 0-.04-.068.26.26 0 0 0-.047-.052.27.27 0 0 0-.054-.043.37.37 0 0 0-.07-.034.3.3 0 0 0-.04-.017L18.893.01a.378.378 0 1 0-.18.734l2.144.53.518 1.73.403 1.278.946 2.974a4.03 4.03 0 1 0 2.542-.207zm1.02 4.407a2.048 2.048 0 1 1-1.496-2.48 2.048 2.048 0 0 1 1.495 2.48zM21.677 3.965a10.027 10.027 0 0 0-1.86-.24 6.315 6.315 0 0 0-.85.038c-1.127.135-1.968.785-3.46 2.015a2.632 2.632 0 0 1-3.29.206l-.012-.008a5.46 5.46 0 0 0-2.715-.883 3.37 3.37 0 0 0-.5.04.37.37 0 0 0-.294-.15h-.814l-.307.073a.37.37 0 0 0-.165.303v.555a4.973 4.973 0 0 0-.535.585.372.372 0 0 0-.13.284.366.366 0 0 0 .386.377.327.327 0 0 0 .062-.003c.002-.002.095-.015.253-.028a4.035 4.035 0 1 0 5.285 3.834c0-.03-.004-.057-.006-.085l.454.82c.444.765.882 2.03 1.68 2.03h2.297c.8 0 1.238-1.265 1.682-2.03l3.324-6.543zm-12.982 9.05a2.05 2.05 0 1 1 2.05-2.05 2.05 2.05 0 0 1-2.05 2.05z"/></g></svg><svg viewBox="0 0 28.33293 15" width="28.333" height="15" x="245" y="180"><defs><style>.alcls-1{fill:#1f1a17}.alcls-2{fill:#fff}</style></defs><title>Artboard 133</title><g id="alLayer_9"><path id="al_Path_" class="alcls-1" d="M7.62 4.614L0 4.904 6.195 6.99l.207-1.316 1.22-1.06z"/><path id="al_Path_2" class="alcls-1" d="M5.63 7.64l-5.07.83 3.547 2.124a4.205 4.205 0 0 1 .38-1.684 4.21 4.21 0 0 1 1.145-1.27z"/><path class="alcls-2" d="M25.265 7.05a4.012 4.012 0 0 0-1.822-.022L21.513.845a.26.26 0 0 0-.02-.037.412.412 0 0 0-.04-.068.26.26 0 0 0-.047-.052.27.27 0 0 0-.054-.043.37.37 0 0 0-.07-.034.3.3 0 0 0-.04-.017L18.893.01a.378.378 0 1 0-.18.734l2.144.53.518 1.73.403 1.278.946 2.974a4.03 4.03 0 1 0 2.542-.207zm1.02 4.407a2.048 2.048 0 1 1-1.496-2.48 2.048 2.048 0 0 1 1.495 2.48zM21.677 3.965a10.027 10.027 0 0 0-1.86-.24 6.315 6.315 0 0 0-.85.038c-1.127.135-1.968.785-3.46 2.015a2.632 2.632 0 0 1-3.29.206l-.012-.008a5.46 5.46 0 0 0-2.715-.883 3.37 3.37 0 0 0-.5.04.37.37 0 0 0-.294-.15h-.814l-.307.073a.37.37 0 0 0-.165.303v.555a4.973 4.973 0 0 0-.535.585.372.372 0 0 0-.13.284.366.366 0 0 0 .386.377.327.327 0 0 0 .062-.003c.002-.002.095-.015.253-.028a4.035 4.035 0 1 0 5.285 3.834c0-.03-.004-.057-.006-.085l.454.82c.444.765.882 2.03 1.68 2.03h2.297c.8 0 1.238-1.265 1.682-2.03l3.324-6.543zm-12.982 9.05a2.05 2.05 0 1 1 2.05-2.05 2.05 2.05 0 0 1-2.05 2.05z"/></g></svg><svg viewBox="0 0 28.72676 38" width="28.727" height="38" x="274" y="195"><defs><style>.amcls-1{fill:#84c225}</style></defs><title>Artboard 108</title><path class="amcls-1" d="M14.365 38a1.94 1.94 0 0 1-1.477-.68C11.56 35.736 0 21.71 0 14.362a14.363 14.363 0 0 1 28.727 0c0 7.356-11.555 21.374-12.874 22.947a1.978 1.978 0 0 1-1.488.69zm0-35.183A11.56 11.56 0 0 0 2.817 14.362c0 4.91 7.202 14.997 11.552 20.326 4.32-5.298 11.54-15.403 11.54-20.326A11.556 11.556 0 0 0 14.364 2.817zm0 18.976a7.428 7.428 0 1 1 7.425-7.43 7.44 7.44 0 0 1-7.425 7.43zm0-12.04a4.61 4.61 0 1 0 4.608 4.61 4.613 4.613 0 0 0-4.608-4.61z" id="amLayer_15"/></svg><svg viewBox="0 0 11.34087 15" width="11.341" height="15" x="303" y="233"><defs><style>.ancls-1{fill:#666}</style></defs><title>Asset 5</title><path class="ancls-1" d="M5.67 15a.754.754 0 0 1-.587-.277C4.565 14.105 0 8.57 0 5.67a5.67 5.67 0 0 1 11.34 0c0 2.902-4.562 8.437-5.082 9.058A.78.78 0 0 1 5.67 15zm.265-.99l.003.004zM5.67 1.112A4.563 4.563 0 0 0 1.112 5.67c0 1.937 2.843 5.92 4.56 8.024C7.38 11.6 10.23 7.612 10.23 5.67a4.563 4.563 0 0 0-4.56-4.558zm0 7.49A2.932 2.932 0 1 1 8.603 5.67 2.937 2.937 0 0 1 5.67 8.603zm0-4.752a1.82 1.82 0 1 0 1.82 1.82 1.82 1.82 0 0 0-1.82-1.82z" id="anLayer_15"/></svg><svg viewBox="0 0 11.33951 15" width="11.34" height="15" x="315" y="248"><defs><style>.aocls-1{fill:#84c225}</style></defs><title>Artboard 113</title><path class="aocls-1" d="M5.67 15a.766.766 0 0 1-.583-.27C4.564 14.107 0 8.57 0 5.67a5.67 5.67 0 0 1 11.34 0c0 2.904-4.56 8.437-5.082 9.058A.78.78 0 0 1 5.67 15zm0-13.888A4.563 4.563 0 0 0 1.112 5.67c0 1.938 2.843 5.92 4.56 8.024 1.706-2.092 4.555-6.08 4.555-8.024A4.562 4.562 0 0 0 5.67 1.112zm0 7.49A2.932 2.932 0 1 1 8.6 5.67a2.937 2.937 0 0 1-2.93 2.934zm0-4.752a1.82 1.82 0 1 0 1.82 1.82 1.82 1.82 0 0 0-1.82-1.82z" id="aoLayer_15"/></svg><svg viewBox="0 0 18.89919 25" width="18.899" height="25" x="327" y="263"><defs><style>.apcls-1{fill:#fff}</style></defs><title>Icons - All.outline.4-Finalq</title><path class="apcls-1" d="M9.45 25a1.276 1.276 0 0 1-.97-.448C7.605 23.51 0 14.282 0 9.448a9.45 9.45 0 0 1 18.9 0c0 4.84-7.603 14.062-8.47 15.098a1.3 1.3 0 0 1-.98.454zm0-23.146a7.605 7.605 0 0 0-7.596 7.594c0 3.23 4.737 9.867 7.6 13.373 2.843-3.485 7.592-10.132 7.592-13.372A7.603 7.603 0 0 0 9.45 1.854zm0 12.484a4.887 4.887 0 1 1 4.885-4.89 4.895 4.895 0 0 1-4.884 4.89zm0-7.92a3.033 3.033 0 1 0 3.032 3.03 3.035 3.035 0 0 0-3.03-3.03z" id="apLayer_15"/></svg><svg viewBox="0 0 18.89919 25" width="18.899" height="25" x="346" y="288"><defs><style>.aqcls-1{fill:#84c225}</style></defs><title>Icons - All.outline.4-Finalq</title><path class="aqcls-1" d="M9.45 25a1.276 1.276 0 0 1-.97-.448C7.605 23.51 0 14.282 0 9.448a9.45 9.45 0 0 1 18.9 0c0 4.84-7.603 14.062-8.47 15.098a1.3 1.3 0 0 1-.98.454zm0-23.146a7.605 7.605 0 0 0-7.596 7.594c0 3.23 4.737 9.867 7.6 13.373 2.843-3.485 7.592-10.132 7.592-13.372A7.603 7.603 0 0 0 9.45 1.854zm0 12.484a4.887 4.887 0 1 1 4.885-4.89 4.895 4.895 0 0 1-4.884 4.89zm0-7.92a3.033 3.033 0 1 0 3.032 3.03 3.035 3.035 0 0 0-3.03-3.03z" id="aqLayer_15"/></svg><svg viewBox="0 0 26.35944 22" width="26.359" height="22" x="365" y="313"><defs><style>.arcls-1{fill:#fff}</style></defs><title>Icons - All.outline.4-Finalpp</title><path class="arcls-1" d="M1.204 0h23.95a1.204 1.204 0 0 1 1.205 1.204 1.204 1.204 0 0 1-1.205 1.205H1.205A1.204 1.204 0 0 1 0 1.203 1.204 1.204 0 0 1 1.204 0zm0 9.796h23.95A1.204 1.204 0 0 1 26.36 11a1.204 1.204 0 0 1-1.205 1.204H1.205A1.204 1.204 0 0 1 0 11a1.204 1.204 0 0 1 1.204-1.204zm0 9.795h23.95a1.204 1.204 0 0 1 1.205 1.206A1.204 1.204 0 0 1 25.154 22H1.205A1.204 1.204 0 0 1 0 20.796a1.204 1.204 0 0 1 1.204-1.205z" id="arLayer_25"/></svg><svg viewBox="0 0 17.14396 15" width="17.144" height="15" x="392" y="335"><defs><style>.ascls-1{fill:#84c341}</style></defs><title>Artboard 127</title><path class="ascls-1" d="M0 7.135c.034-.265.056-.53.104-.793A7.263 7.263 0 0 1 5 .455a7.38 7.38 0 0 1 8.666 2.798 6.935 6.935 0 0 1 1.01 2.12c.014.052-.004.155-.04.176a1.72 1.72 0 0 0-.84 1.23c-.01.055-.028.107-.045.17h-.247c-.044-.247-.076-.496-.133-.738a8.53 8.53 0 0 0-.224-.752.186.186 0 0 0-.135-.104c-.81-.006-1.62-.003-2.428-.002a.15.15 0 0 0-.037.012l.163 1.582H9.656c-.035-.332-.066-.66-.103-.985-.018-.166-.05-.33-.07-.496-.01-.09-.056-.118-.145-.118-1.222 0-2.445 0-3.668.005-.047 0-.13.056-.137.095-.07.496-.13.993-.195 1.518H8.02l.012.047c-.038.02-.076.044-.117.06a1.41 1.41 0 0 0-.834.84c-.036.1-.09.12-.184.12-.502-.004-1.004-.003-1.53-.003.01.188.01.364.03.538.036.316.09.63.124.945.013.12.066.144.173.143.453-.005.905 0 1.357-.005.112 0 .168.022.194.144.064.298.146.593.226.91H5.83a.383.383 0 0 0 0 .095 6.107 6.107 0 0 0 1.06 2.072c.095.116.207.218.307.33a.837.837 0 0 0 .854.288.2.2 0 0 1 .15.08c.062.076.09.19.163.25a.66.66 0 0 1 .206.63v.033c0 .45 0 .45-.448.482a7.322 7.322 0 0 1-5.574-1.85 7.284 7.284 0 0 1-2.478-4.7L0 7.87zm9.2-2.848c-.052-.157-.097-.3-.15-.438a4.954 4.954 0 0 0-1.325-2.1c-.26-.225-.196-.22-.456-.003a2.5 2.5 0 0 0-.24.232 5.817 5.817 0 0 0-1.2 2.234.273.273 0 0 0-.002.073zM1.526 8.04a5.706 5.706 0 0 0 .317 1.478.18.18 0 0 0 .205.14c.76-.005 1.517-.002 2.276-.003.048 0 .097-.006.14-.01L4.296 8.04zm-.037-1.074h2.808l.17-1.615h-2.16c-.43 0-.44 0-.55.417-.104.39-.178.787-.27 1.2zm11.07-2.67c-.513-1.066-2.565-2.562-3.484-2.562a.09.09 0 0 0 .008.032 7.883 7.883 0 0 1 1.154 2.413c.033.11.092.117.183.117.54-.002 1.08-.002 1.62-.002h.52zM2.455 10.71c.43 1 2.628 2.61 3.468 2.55-.08-.12-.157-.235-.23-.35a8.52 8.52 0 0 1-.927-2.07c-.016-.05-.077-.124-.117-.125-.725-.007-1.45-.005-2.194-.005zm-.022-6.425c.082.004.13.01.178.01.63 0 1.26-.006 1.89.004a.252.252 0 0 0 .298-.198l.003-.018a7.592 7.592 0 0 1 1.087-2.282.61.61 0 0 0 .04-.098 6.078 6.078 0 0 0-3.495 2.58zM13.524 12.334l.14-.55H9.315a.475.475 0 0 1-.552-.384l-.006-.046q-.342-1.36-.682-2.722a.44.44 0 0 1 .48-.585H14.6l.24-.937c.017-.06.028-.12.043-.18a.554.554 0 0 1 .607-.494l.022.003c.352 0 .703-.003 1.055 0a.53.53 0 1 1 .01 1.056c-.185.002-.37.012-.553-.004-.15-.012-.212.04-.248.187q-.597 2.407-1.205 4.812l-.104.422a.548.548 0 0 1-.607.478H9.72a.534.534 0 1 1 .005-1.057h3.567zm-.66-2.68c.43 0 .842 0 1.254-.004a.122.122 0 0 0 .092-.065c.046-.152.08-.307.122-.467h-1.47zm-2.144-.54H9.332c.038.15.08.29.106.43.018.092.066.113.15.112.274-.004.547-.002.82-.002h.312zm2.143 1.61c.342 0 .67.003.996-.002a.123.123 0 0 0 .085-.075c.044-.148.078-.3.118-.458h-1.2zm-.538-.536H11.26v.53h1.066zm0-1.07H11.26v.527h1.066zm-2.722 1.067c.04.165.072.31.114.454.01.033.054.08.083.08.305.007.61.005.917.005v-.54zm3.804 3.758a.53.53 0 1 1-.536.53.537.537 0 0 1 .537-.53zm-3.727.525a.52.52 0 1 1 .508.53.522.522 0 0 1-.51-.53z"/></svg><svg viewBox="0 0 17.14396 15" width="17.144" height="15" x="410" y="350"><defs><style>.atcls-1{fill:#fff}</style></defs><title>Artboard 126</title><path class="atcls-1" d="M0 7.135c.034-.265.056-.53.104-.793A7.263 7.263 0 0 1 5 .455a7.38 7.38 0 0 1 8.666 2.798 6.935 6.935 0 0 1 1.01 2.12c.014.052-.004.155-.04.176a1.72 1.72 0 0 0-.84 1.23c-.01.055-.028.107-.045.17h-.247c-.044-.247-.076-.496-.133-.738a8.53 8.53 0 0 0-.224-.752.186.186 0 0 0-.135-.104c-.81-.006-1.62-.003-2.428-.002a.15.15 0 0 0-.037.012l.163 1.582H9.656c-.035-.332-.066-.66-.103-.985-.018-.166-.05-.33-.07-.496-.01-.09-.056-.118-.145-.118-1.222 0-2.445 0-3.668.005-.047 0-.13.056-.137.095-.07.496-.13.993-.195 1.518H8.02l.012.047c-.038.02-.076.044-.117.06a1.41 1.41 0 0 0-.834.84c-.036.1-.09.12-.184.12-.502-.004-1.004-.003-1.53-.003.01.188.01.364.03.538.036.316.09.63.124.945.013.12.066.144.173.143.453-.005.905 0 1.357-.005.112 0 .168.022.194.144.064.298.146.593.226.91H5.83a.383.383 0 0 0 0 .095 6.107 6.107 0 0 0 1.06 2.072c.095.116.207.218.307.33a.837.837 0 0 0 .854.288.2.2 0 0 1 .15.08c.062.076.09.19.163.25a.66.66 0 0 1 .206.63v.033c0 .45 0 .45-.448.482a7.322 7.322 0 0 1-5.574-1.85 7.284 7.284 0 0 1-2.478-4.7L0 7.87zm9.2-2.848c-.052-.157-.097-.3-.15-.438a4.954 4.954 0 0 0-1.325-2.1c-.26-.225-.196-.22-.456-.003a2.5 2.5 0 0 0-.24.232 5.817 5.817 0 0 0-1.2 2.234.273.273 0 0 0-.002.073zM1.526 8.04a5.706 5.706 0 0 0 .317 1.478.18.18 0 0 0 .205.14c.76-.005 1.517-.002 2.276-.003.048 0 .097-.006.14-.01L4.296 8.04zm-.037-1.074h2.808l.17-1.615h-2.16c-.43 0-.44 0-.55.417-.104.39-.178.787-.27 1.2zm11.07-2.67c-.513-1.066-2.565-2.562-3.484-2.562a.09.09 0 0 0 .008.032 7.883 7.883 0 0 1 1.154 2.413c.033.11.092.117.183.117.54-.002 1.08-.002 1.62-.002h.52zM2.455 10.71c.43 1 2.628 2.61 3.468 2.55-.08-.12-.157-.235-.23-.35a8.52 8.52 0 0 1-.927-2.07c-.016-.05-.077-.124-.117-.125-.725-.007-1.45-.005-2.194-.005zm-.022-6.425c.082.004.13.01.178.01.63 0 1.26-.006 1.89.004a.252.252 0 0 0 .298-.198l.003-.018a7.592 7.592 0 0 1 1.087-2.282.61.61 0 0 0 .04-.098 6.078 6.078 0 0 0-3.495 2.58zM13.524 12.334l.14-.55H9.315a.475.475 0 0 1-.552-.384l-.006-.046q-.342-1.36-.682-2.722a.44.44 0 0 1 .48-.585H14.6l.24-.937c.017-.06.028-.12.043-.18a.554.554 0 0 1 .607-.494l.022.003c.352 0 .703-.003 1.055 0a.53.53 0 1 1 .01 1.056c-.185.002-.37.012-.553-.004-.15-.012-.212.04-.248.187q-.597 2.407-1.205 4.812l-.104.422a.548.548 0 0 1-.607.478H9.72a.534.534 0 1 1 .005-1.057h3.567zm-.66-2.68c.43 0 .842 0 1.254-.004a.122.122 0 0 0 .092-.065c.046-.152.08-.307.122-.467h-1.47zm-2.144-.54H9.332c.038.15.08.29.106.43.018.092.066.113.15.112.274-.004.547-.002.82-.002h.312zm2.143 1.61c.342 0 .67.003.996-.002a.123.123 0 0 0 .085-.075c.044-.148.078-.3.118-.458h-1.2zm-.538-.536H11.26v.53h1.066zm0-1.07H11.26v.527h1.066zm-2.722 1.067c.04.165.072.31.114.454.01.033.054.08.083.08.305.007.61.005.917.005v-.54zm3.804 3.758a.53.53 0 1 1-.536.53.537.537 0 0 1 .537-.53zm-3.727.525a.52.52 0 1 1 .508.53.522.522 0 0 1-.51-.53z"/></svg><svg viewBox="0 0 15.00198 15" width="15.002" height="15" x="428" y="365"><defs><style>.aucls-1{fill:#da251d}</style></defs><title>Icons - All.outline.4-Final</title><path id="auForma_1" class="aucls-1" d="M9.595 14.635a1.257 1.257 0 0 1-1.772 0L.923 8.18a2.852 2.852 0 0 1-.878-1.57c-.09-1.426-.026-4.153.017-5.6a1.026 1.026 0 0 1 .99-.98C2.9-.015 6.826-.06 7.19.303l7.6 6.857c.486.488.044 1.72-.448 2.208zM3.548 2.125a1.057 1.057 0 1 0-.003 1.495l.003-.003a1.06 1.06 0 0 0-.005-1.492z"/></svg><svg viewBox="0 0 15.00198 15" width="15.002" height="15" x="444" y="380"><defs><style>.avcls-1{fill:#fff}</style></defs><title>Icons - All.outline.4-Final</title><path id="avForma_1" class="avcls-1" d="M9.595 14.635a1.257 1.257 0 0 1-1.772 0L.923 8.18a2.852 2.852 0 0 1-.878-1.57c-.09-1.426-.026-4.153.017-5.6a1.026 1.026 0 0 1 .99-.98C2.9-.015 6.826-.06 7.19.303l7.6 6.857c.486.488.044 1.72-.448 2.208zM3.548 2.125a1.057 1.057 0 1 0-.003 1.495l.003-.003a1.06 1.06 0 0 0-.005-1.492z"/></svg><svg viewBox="0 0 20 20" width="20" height="20" x="460" y="395"><defs><style>.awcls-1{fill:#fff}</style></defs><title>Icons - All.outline.4-Finall</title><path class="awcls-1" d="M19.755 18.58l-4.808-4.808a8.423 8.423 0 1 0-1.18 1.18l4.808 4.803a.833.833 0 1 0 1.18-1.175zM8.43 15.18a6.753 6.753 0 1 1 6.754-6.752A6.76 6.76 0 0 1 8.43 15.18zm0 0" id="awLayer_18"/></svg><svg viewBox="0 0 20 20" width="20" height="20" x="480" y="415"><defs><style>.axcls-1{fill:#222}</style></defs><title>Icons - All.outline.4-Finall</title><path class="axcls-1" d="M19.755 18.58l-4.808-4.808a8.423 8.423 0 1 0-1.18 1.18l4.808 4.803a.833.833 0 1 0 1.18-1.175zM8.43 15.18a6.753 6.753 0 1 1 6.754-6.752A6.76 6.76 0 0 1 8.43 15.18zm0 0" id="axLayer_18"/></svg><svg viewBox="0 0 26.23971 15" width="26.24" height="15" x="500" y="435"><defs><style>.aycls-1{fill:#888}</style></defs><title>Artboard 128</title><g id="ay_Group_"><path id="ay_Path_" class="aycls-1" d="M7.028 13.156a1.843 1.843 0 1 1-1.843-1.843 1.844 1.844 0 0 1 1.843 1.843"/><path id="ay_Path_2" class="aycls-1" d="M22.738 13.156a1.843 1.843 0 1 1-1.845-1.843 1.846 1.846 0 0 1 1.845 1.843"/><path id="ay_Compound_Path_" class="aycls-1" d="M25.63 6.364L23.148 3.92a1.887 1.887 0 0 0-1.457-.73h-3.587a.797.797 0 0 0-.796.796v7.975a.798.798 0 0 0 .792.797 2.822 2.822 0 0 1 5.59 0h1.754a.798.798 0 0 0 .796-.796V7.974a3.397 3.397 0 0 0-.61-1.61m-6.58 1.61v-3.19h2.598c.13 0 .307.19.307.19l2.144 2.32a1.46 1.46 0 0 1 .31.68z"/><path id="ay_Path_3" class="aycls-1" d="M15.712 0H.797A.798.798 0 0 0 0 .796V11.96a.8.8 0 0 0 .797.797h1.59a2.822 2.822 0 0 1 5.592 0h7.732a.8.8 0 0 0 .797-.796V.797A.8.8 0 0 0 15.71 0"/></g></svg><svg viewBox="0 0 26.23971 15" width="26.24" height="15" x="527" y="450"><defs><style>.azcls-1{fill:#84c225}</style></defs><title>Artboard 129</title><g id="az_Group_"><path id="az_Path_" class="azcls-1" d="M7.028 13.156a1.843 1.843 0 1 1-1.843-1.843 1.844 1.844 0 0 1 1.843 1.843"/><path id="az_Path_2" class="azcls-1" d="M22.738 13.156a1.843 1.843 0 1 1-1.845-1.843 1.846 1.846 0 0 1 1.845 1.843"/><path id="az_Compound_Path_" class="azcls-1" d="M25.63 6.364L23.148 3.92a1.887 1.887 0 0 0-1.457-.73h-3.587a.797.797 0 0 0-.796.796v7.975a.798.798 0 0 0 .792.797 2.822 2.822 0 0 1 5.59 0h1.754a.798.798 0 0 0 .796-.796V7.974a3.397 3.397 0 0 0-.61-1.61m-6.58 1.61v-3.19h2.598c.13 0 .307.19.307.19l2.144 2.32a1.46 1.46 0 0 1 .31.68z"/><path id="az_Path_3" class="azcls-1" d="M15.712 0H.797A.798.798 0 0 0 0 .796V11.96a.8.8 0 0 0 .797.797h1.59a2.822 2.822 0 0 1 5.592 0h7.732a.8.8 0 0 0 .797-.796V.797A.8.8 0 0 0 15.71 0"/></g></svg><svg viewBox="0 0 17.3596 15.17106" width="17.36" height="15.171" x="554" y="465"><defs><style>.bacls-1{fill:#666}</style></defs><title>Artboard 118</title><g id="baLayer_14"><path class="bacls-1" d="M8.698 8.802h-.04A3.077 3.077 0 0 1 6.294 7.8c-1.36-1.53-1.062-4.284-1.06-4.31A3.28 3.28 0 0 1 8.6 0a3.324 3.324 0 0 1 3.522 3.495c.018.15.29 2.782-1.06 4.3a3.067 3.067 0 0 1-2.36 1.007zm.058-7.474c-.882 0-2.11.292-2.2 2.25a5.025 5.025 0 0 0 .728 3.34 1.754 1.754 0 0 0 1.385.556l.023.664-.01-.664a1.747 1.747 0 0 0 1.387-.557 4.84 4.84 0 0 0 .745-3.157l-.015-.027-.003-.185c-.088-1.93-1.317-2.22-2.04-2.22zM.73 15.02c-.34 0-.63.342-.66-.003-.39-4.3.898-4.67 2.906-5.2a4.834 4.834 0 0 0 3.242-1.83.654.654 0 0 1 .93-.055.71.71 0 0 1 .13.967 6.507 6.507 0 0 1-3.963 2.482c-1.492.394-2.242.003-1.924 3.507.033.363-.236.13-.6.13zm15.9 0h-.06c-.365 0-.633.243-.6-.122.316-3.504-.433-3.403-1.925-3.796a6.133 6.133 0 0 1-3.964-2.315.58.58 0 0 1 .13-.855.67.67 0 0 1 .93.167 5.153 5.153 0 0 0 3.244 2c2.008.53 3.295.608 2.906 4.907-.03.345-.32.014-.66.014z"/></g></svg><svg viewBox="0 0 16.84537 14.97466" width="16.845" height="14.975" x="572" y="481"><defs><style>.bbcls-1{fill:#666}</style></defs><title>Artboard 117</title><g id="bbLayer_14"><path class="bbcls-1" d="M8.44 8.54h-.037a2.986 2.986 0 0 1-2.296-.972c-1.32-1.483-1.03-4.156-1.028-4.183A3.182 3.182 0 0 1 8.342 0a3.226 3.226 0 0 1 3.42 3.39c.017.147.28 2.7-1.028 4.175a2.976 2.976 0 0 1-2.29.976zm.057-7.25c-.857 0-2.048.28-2.134 2.183a4.877 4.877 0 0 0 .705 3.24 1.702 1.702 0 0 0 1.344.54l.024.644-.01-.645a1.695 1.695 0 0 0 1.345-.54 4.696 4.696 0 0 0 .724-3.063l-.014-.028-.003-.18C10.392 1.573 9.2 1.29 8.497 1.29zM.708 14.822c-.33 0-.61.208-.64-.127-.378-4.172.87-4.592 2.82-5.106a4.746 4.746 0 0 0 3.146-1.81.635.635 0 0 1 .902-.068.68.68 0 0 1 .126.93 6.305 6.305 0 0 1-3.846 2.407c-1.447.38-2.175.122-1.867 3.523.03.354-.23.25-.584.25zm15.43 0h-.06c-.353 0-.614.112-.582-.242.308-3.4-.42-3.363-1.867-3.745A6.017 6.017 0 0 1 9.78 8.557a.58.58 0 0 1 .126-.845.65.65 0 0 1 .902.155 4.993 4.993 0 0 0 3.147 1.937c1.95.514 3.198.712 2.82 4.884-.03.335-.31.134-.64.134zm-8.602.153a.576.576 0 0 1-.407-.17l-1.505-1.512a.575.575 0 1 1 .815-.812l1.102 1.108 2.87-2.802a.575.575 0 0 1 .803.823l-3.277 3.2a.57.57 0 0 1-.402.165z"/></g></svg><svg viewBox="0 0 15.70227 14.65283" width="15.702" height="14.653" x="589" y="496"><defs><style>.bccls-1{fill:#fff}</style></defs><title>Artboard 112</title><g id="bcLayer_14"><path class="bccls-1" d="M7.868 7.96h-.036a2.783 2.783 0 0 1-2.14-.905c-1.23-1.383-.96-3.875-.958-3.9A2.966 2.966 0 0 1 7.777 0a3.007 3.007 0 0 1 3.187 3.16c.016.137.262 2.518-.958 3.89a2.774 2.774 0 0 1-2.134.91zM7.92 1.2c-.798 0-1.908.265-1.99 2.037a4.546 4.546 0 0 0 .66 3.02 1.587 1.587 0 0 0 1.25.503l.023.6-.01-.6a1.58 1.58 0 0 0 1.255-.504A4.377 4.377 0 0 0 9.782 3.4l-.013-.024-.004-.167C9.686 1.464 8.576 1.2 7.92 1.2zM.66 14.653a.592.592 0 0 1-.597-.537c-.352-3.89.813-4.49 2.63-4.968a4.62 4.62 0 0 0 2.932-1.79.6.6 0 0 1 .958.724 5.847 5.847 0 0 1-3.585 2.23c-1.35.356-2.027.527-1.74 3.697a.577.577 0 0 1-.544.643zm14.382 0h-.054a.577.577 0 0 1-.544-.644c.287-3.17-.39-3.346-1.74-3.7a5.844 5.844 0 0 1-3.586-2.23.6.6 0 1 1 .958-.722A4.628 4.628 0 0 0 13.01 9.15c1.817.48 2.98 1.076 2.63 4.965a.592.592 0 0 1-.598.537zm-8.017-.694a.537.537 0 0 1-.38-.16l-1.402-1.41a.536.536 0 1 1 .76-.756l1.027 1.032 2.674-2.612a.536.536 0 1 1 .75.768L7.4 13.805a.533.533 0 0 1-.375.154z"/></g></svg><svg viewBox="0 0 24.81642 22.97114" width="24.816" height="22.971" x="605" y="511"><defs><style>.bdcls-1{fill:#84c225}</style></defs><title>Icons - All.outline.4-Finalpp</title><g id="bdLayer_14"><path class="bdcls-1" d="M12.434 12.583h-.055a4.4 4.4 0 0 1-3.384-1.433C7.052 8.964 7.478 5.026 7.482 4.987 7.65 1.322 10.075 0 12.292 0c2.434 0 4.856 1.315 5.036 4.996.026.215.415 3.977-1.514 6.15a4.385 4.385 0 0 1-3.373 1.437zm.083-10.685c-1.26 0-3.016.417-3.143 3.218-.1.97-.086 3.508 1.04 4.774a2.508 2.508 0 0 0 1.978.794l.035.95-.014-.95a2.497 2.497 0 0 0 1.982-.796c1.07-1.204 1.137-3.528 1.065-4.512l-.02-.04-.006-.264c-.125-2.757-1.882-3.174-2.917-3.174zM1.043 22.97a.86.86 0 0 1-.944-.754c-.557-6.147 1.284-7.048 4.154-7.806a7.257 7.257 0 0 0 4.635-2.806.943.943 0 0 1 1.33-.172.96.96 0 0 1 .183 1.336 9.247 9.247 0 0 1-5.665 3.527c-2.132.562-3.204.74-2.75 5.75a.835.835 0 0 1-.86.926zm22.73 0h-.086a.833.833 0 0 1-.86-.923c.455-5.01-.617-5.24-2.75-5.802a9.182 9.182 0 0 1-5.666-3.497.935.935 0 0 1 .186-1.315.95.95 0 0 1 1.33.19 7.32 7.32 0 0 0 4.636 2.838c2.87.758 4.71 1.608 4.156 7.754a.862.862 0 0 1-.945.757zm-12.67-.91a.848.848 0 0 1-.6-.25l-2.216-2.227a.847.847 0 1 1 1.2-1.197l1.623 1.63 4.227-4.126a.848.848 0 1 1 1.184 1.213l-4.826 4.715a.842.842 0 0 1-.592.242z"/></g></svg><svg viewBox="0 0 24.62039 22.8941" width="24.62" height="22.894" x="630" y="534"><defs><style>.becls-1{fill:#fff}</style></defs><title>Icons - All.outline.4-Finalpp</title><g id="beLayer_14"><path class="becls-1" d="M12.336 12.483h-.055a4.364 4.364 0 0 1-3.355-1.422c-1.93-2.167-1.507-6.074-1.502-6.113C7.588 1.31 9.995 0 12.193 0c2.417 0 4.82 1.305 4.998 4.957.027.213.412 3.945-1.5 6.1a4.35 4.35 0 0 1-3.347 1.426zm.083-10.6c-1.253 0-2.994.414-3.12 3.193-.1.962-.085 3.48 1.03 4.736a2.488 2.488 0 0 0 1.965.788l.034.94-.015-.94a2.477 2.477 0 0 0 1.966-.79c1.062-1.195 1.13-3.5 1.058-4.477l-.02-.04-.005-.26c-.124-2.736-1.868-3.15-2.894-3.15zM1.035 22.894a.895.895 0 0 1-.937-.8c-.55-6.1 1.275-7.02 4.123-7.77a7.225 7.225 0 0 0 4.6-2.8.937.937 0 0 1 1.317-.176.947.947 0 0 1 .184 1.322 9.17 9.17 0 0 1-5.62 3.498c-2.114.558-3.178.786-2.728 5.756a.87.87 0 0 1-.852.97zm22.55 0H23.5a.87.87 0 0 1-.852-.97c.45-4.97-.613-5.223-2.73-5.78a9.14 9.14 0 0 1-5.62-3.483.938.938 0 1 1 1.5-1.124 7.26 7.26 0 0 0 4.6 2.813c2.85.75 4.675 1.644 4.124 7.742a.895.895 0 0 1-.937.802zm-12.57-1.008a.842.842 0 0 1-.596-.248l-2.2-2.21a.84.84 0 0 1 1.192-1.187l1.61 1.62 4.194-4.096a.84.84 0 1 1 1.175 1.204l-4.79 4.678a.835.835 0 0 1-.586.24z"/></g></svg><svg viewBox="0 0 17.14878 15.24391" width="17.149" height="15.244" x="655" y="557"><defs><style>.bfcls-1{fill:#fff}</style></defs><title>Artboard 116</title><g id="bfLayer_14"><path class="bfcls-1" d="M8.592 8.695h-.038a3.04 3.04 0 0 1-2.337-.99c-1.344-1.51-1.05-4.232-1.047-4.26A3.24 3.24 0 0 1 8.493 0a3.284 3.284 0 0 1 3.48 3.452c.02.15.288 2.75-1.045 4.25a3.03 3.03 0 0 1-2.33.993zm.058-7.383c-.872 0-2.085.288-2.173 2.224a4.964 4.964 0 0 0 .72 3.298 1.733 1.733 0 0 0 1.366.55l.024.655-.01-.657a1.725 1.725 0 0 0 1.37-.55 4.78 4.78 0 0 0 .736-3.118l-.014-.028-.004-.182C10.58 1.6 9.366 1.312 8.65 1.312zM.72 15.21c-.335 0-.62.15-.652-.19-.384-4.247.888-4.705 2.872-5.228a4.86 4.86 0 0 0 3.203-1.856.647.647 0 0 1 .918-.077.688.688 0 0 1 .13.942 6.414 6.414 0 0 1-3.916 2.448c-1.473.39-2.214.185-1.9 3.647.032.36-.234.314-.594.314zm15.708 0h-.06c-.36 0-.625.054-.593-.306.314-3.462-.427-3.455-1.9-3.844a6.16 6.16 0 0 1-3.917-2.334.598.598 0 0 1 .128-.867.66.66 0 0 1 .918.152 5.08 5.08 0 0 0 3.205 1.97c1.983.524 3.254.785 2.87 5.032-.03.34-.316.197-.652.197z"/></g></svg><svg viewBox="0 0 25.7893 23.10056" width="25.789" height="23.101" x="673" y="573"><defs><style>.bgcls-1{fill:#84c225}</style></defs><title>Icons - All.outline.4-Finalpp</title><g id="bgLayer_14"><path class="bgcls-1" d="M12.922 13.076h-.058a4.57 4.57 0 0 1-3.515-1.49c-2.022-2.27-1.58-6.362-1.575-6.403C7.95 1.373 10.47 0 12.772 0c2.53 0 5.048 1.367 5.236 5.192.026.224.43 4.133-1.574 6.39a4.557 4.557 0 0 1-3.505 1.494zm.086-11.103c-1.31 0-3.135.433-3.267 3.344-.102 1.008-.088 3.645 1.08 4.96a2.606 2.606 0 0 0 2.058.826l.036.986-.014-.987a2.595 2.595 0 0 0 2.06-.828c1.11-1.25 1.18-3.666 1.106-4.69l-.022-.04-.004-.274c-.13-2.864-1.956-3.297-3.032-3.297zM1.084 23.09c-.505 0-.936.118-.98-.395-.58-6.387 1.334-7.13 4.317-7.915 1.596-.42 3.24-.73 4.818-2.82a.974.974 0 0 1 1.38-.13 1.026 1.026 0 0 1 .193 1.414 9.638 9.638 0 0 1-5.886 3.677c-2.216.586-3.33.386-2.858 5.59.048.543-.35.58-.893.58zm23.62 0h-.088c-.54 0-.94-.03-.893-.57.472-5.207-.642-5.25-2.858-5.834a9.32 9.32 0 0 1-5.89-3.536.914.914 0 0 1 .193-1.318.99.99 0 0 1 1.38.224 7.63 7.63 0 0 0 4.82 2.96c2.983.787 4.896 1.284 4.32 7.672-.047.512-.478.4-.983.4z"/></g></svg><svg viewBox="0 0 25.7893 23.10056" width="25.789" height="23.101" x="699" y="597"><defs><style>.bhcls-1{fill:#fff}</style></defs><title>Icons - All.outline.4-Finalpp</title><g id="bhLayer_14"><path class="bhcls-1" d="M12.922 13.076h-.058a4.57 4.57 0 0 1-3.515-1.49c-2.022-2.27-1.58-6.362-1.575-6.403C7.95 1.373 10.47 0 12.772 0c2.53 0 5.048 1.367 5.236 5.192.026.224.43 4.133-1.574 6.39a4.557 4.557 0 0 1-3.505 1.494zm.086-11.103c-1.31 0-3.135.433-3.267 3.344-.102 1.008-.088 3.645 1.08 4.96a2.606 2.606 0 0 0 2.058.826l.036.986-.014-.987a2.595 2.595 0 0 0 2.06-.828c1.11-1.25 1.18-3.666 1.106-4.69l-.022-.04-.004-.274c-.13-2.864-1.956-3.297-3.032-3.297zM1.084 23.09c-.505 0-.936.118-.98-.395-.58-6.387 1.334-7.13 4.317-7.915 1.596-.42 3.24-.73 4.818-2.82a.974.974 0 0 1 1.38-.13 1.026 1.026 0 0 1 .193 1.414 9.638 9.638 0 0 1-5.886 3.677c-2.216.586-3.33.386-2.858 5.59.048.543-.35.58-.893.58zm23.62 0h-.088c-.54 0-.94-.03-.893-.57.472-5.207-.642-5.25-2.858-5.834a9.32 9.32 0 0 1-5.89-3.536.914.914 0 0 1 .193-1.318.99.99 0 0 1 1.38.224 7.63 7.63 0 0 0 4.82 2.96c2.983.787 4.896 1.284 4.32 7.672-.047.512-.478.4-.983.4z"/></g></svg></svg>